<svg width="32" height="32" fill="none" xmlns="http://www.w3.org/2000/svg">
  <mask id="a" style="mask-type:alpha" maskUnits="userSpaceOnUse" x="0" y="0" width="32" height="32">
    <circle cx="16" cy="16" r="16" fill="#FEFEFE"/>
  </mask>
  <g mask="url(#a)">
    <path fill="#E7E7E7" d="M0 0h32v32H0z"/>
    <mask id="b" style="mask-type:alpha" maskUnits="userSpaceOnUse" x="11" y="6" width="10" height="14">
      <path d="M13.65 6.422h3.23c.007.435.36.823 1.058 1.163 2.69 1.309 2.69 3.59 2.69 5.815 0 2.355-.281 4.174-.845 5.456a1.034 1.034 0 0 1-.946.618h-5.05c-.451 0-.85-.291-.986-.72-.702-2.211-1.053-4.254-1.053-6.129 0-1.672 1.147-3.38 1.706-5.04.09-.268.155-.656.196-1.163Z" fill="#FEFEFE"/>
    </mask>
    <g mask="url(#b)">
      <path d="M13.65 6.423h3.23c.007.435.36.823 1.058 1.163 2.69 1.309 2.69 3.59 2.69 5.815 0 2.355-.281 4.174-.845 5.456a1.034 1.034 0 0 1-.946.618h-5.05c-.451 0-.85-.291-.986-.72-.702-2.211-1.053-4.254-1.053-6.129 0-1.672 1.147-3.38 1.706-5.04.09-.268.155-.656.196-1.163Z" fill="#7D7D7D"/>
      <path d="M20.629 6.423h-5.04v13.052h5.04V6.423Z" fill="#7D7D7D"/>
      <mask id="c" style="mask-type:alpha" maskUnits="userSpaceOnUse" x="12" y="7" width="8" height="11">
        <path d="M15.54 7.603c.953 0 1.595.422 1.34.818-.598.985-.915 1.82.365 3.87.854 1.365 1.734 2.123 2.64 2.275l-.303 2.33c-.067.515-.506.9-1.025.9h-4.145a.905.905 0 0 1-.858-.615c-.414-1.227-.671-2.565-.772-4.014-.177-2.541 1.153-5.564 2.758-5.564Z" fill="#FEFEFE"/>
      </mask>
      <g mask="url(#c)">
        <path d="M15.54 7.602c.953 0 1.595.422 1.34.818-.598.985-.915 1.82.365 3.87.854 1.365 1.734 2.123 2.64 2.275l-.303 2.33c-.067.515-.506.9-1.025.9h-4.145a.905.905 0 0 1-.857-.615c-.415-1.227-.672-2.565-.773-4.014-.176-2.541 1.153-5.564 2.758-5.564Z" fill="#7D7D7D"/>
      </g>
    </g>
    <path d="M16.88 5.39h-3.23v.904h3.23V5.39Z" fill="#B2B2B2"/>
    <path d="M16.752 6.294h-2.973v.132h2.973v-.132Z" fill="#626262"/>
    <path d="M16.88 5.39H15.59v.904h1.292V5.39Z" fill="#848484"/>
    <path d="M16.622 3.84H13.91v1.68h2.713V3.84Z" fill="#B2B2B2"/>
    <path d="M16.622 3.84H15.59v1.68h1.033V3.84Z" fill="#848484"/>
    <mask id="d" style="mask-type:alpha" maskUnits="userSpaceOnUse" x="16" y="8" width="5" height="6">
      <path d="M17.378 8.671c-.862.295-1.297 1.628-.212 3.4 1.086 1.773 1.805 2.034 2.395 1.67.678-.306.58-1.759 0-3.283s-1.49-2.02-2.183-1.787Z" fill="#FEFEFE"/>
    </mask>
    <g mask="url(#d)">
      <path d="M17.377 8.671c-.861.295-1.296 1.628-.21 3.4 1.085 1.773 1.804 2.034 2.394 1.67.678-.306.58-1.759 0-3.283s-1.49-2.02-2.184-1.787Z" fill="#6B6B6B"/>
      <path fill-rule="evenodd" clip-rule="evenodd" d="m17.205 12.95 3.688-3.409 1.028 5.67h-5.04l.324-2.26Z" fill="#7D7D7D"/>
    </g>
    <path fill-rule="evenodd" clip-rule="evenodd" d="M17.52 9.335c-.605.21-.598 1.416.085 2.486.683 1.07 1.26 1.514 1.66 1.261.401-.27.36-1.188-.132-2.44-.491-1.252-1.229-1.466-1.612-1.307Z" fill="#E7E7E7"/>
    <mask id="e" style="mask-type:alpha" maskUnits="userSpaceOnUse" x="11" y="6" width="10" height="14">
      <path d="M13.65 6.422h3.23c.007.435.36.823 1.058 1.163 2.69 1.309 2.69 3.59 2.69 5.815 0 2.355-.281 4.174-.845 5.456a1.034 1.034 0 0 1-.946.618h-5.05c-.451 0-.85-.291-.986-.72-.702-2.211-1.053-4.254-1.053-6.129 0-1.672 1.147-3.38 1.706-5.04.09-.268.155-.656.196-1.163Z" fill="#FEFEFE"/>
    </mask>
    <g mask="url(#e)">
      <path fill-rule="evenodd" clip-rule="evenodd" d="m11.692 7.334 8.936 8.408-8.954.121.018-8.529Z" fill="#6B6B6B"/>
    </g>
    <mask id="f" style="mask-type:alpha" maskUnits="userSpaceOnUse" x="18" y="7" width="4" height="5">
      <path d="M20.287 7.382a.608.608 0 0 1 .486.972v.205a1.46 1.46 0 1 1-.973 0v-.205a.608.608 0 0 1 .486-.972Z" fill="#FEFEFE"/>
    </mask>
    <g mask="url(#f)">
      <path d="M20.287 7.382a.608.608 0 0 1 .486.972v.205a1.46 1.46 0 1 1-.973 0v-.205a.608.608 0 0 1 .486-.972Z" fill="#C1C1C1"/>
      <path fill-rule="evenodd" clip-rule="evenodd" d="M20.286 7.34h1.945v2.108h-1.945V8.394c.081-.113.122-.277.122-.49 0-.215-.04-.403-.122-.563Z" fill="#B0B0B0"/>
    </g>
    <mask id="g" style="mask-type:alpha" maskUnits="userSpaceOnUse" x="17" y="10" width="6" height="7">
      <path d="m18.433 10.847.503-.307h2.7l.478.291c.339.207.518.6.452.992-.08.468-.119 1.051-.119 1.75 0 .695.04 1.39.117 2.085a.972.972 0 0 1-.966 1.081h-2.642a.972.972 0 0 1-.967-1.078c.09-.83.136-1.525.136-2.087 0-.58-.048-1.159-.144-1.738a.972.972 0 0 1 .452-.99Z" fill="#FEFEFE"/>
    </mask>
    <g mask="url(#g)">
      <path d="m18.433 10.848.503-.307h2.7l.478.291c.34.207.518.6.452.992-.08.468-.119 1.051-.119 1.75 0 .695.04 1.39.117 2.085a.972.972 0 0 1-.966 1.081h-2.642a.972.972 0 0 1-.967-1.078c.09-.83.136-1.525.136-2.087 0-.58-.048-1.159-.144-1.738a.972.972 0 0 1 .452-.99Z" fill="#F5F5F5"/>
      <path fill-rule="evenodd" clip-rule="evenodd" d="M18.585 10.42h3.89v.487h-3.526l-.364-.486Z" fill="#D8D8D8"/>
      <path fill-rule="evenodd" clip-rule="evenodd" d="M20.287 10.663c-.267-.698.503-.698 2.309 0v6.078c-1.9.593-2.67.593-2.31 0 .541-.89 0-1.81 0-3.233 0-1.422.4-1.798 0-2.845Z" fill="#D8D8D8"/>
      <path d="M18.828 12h-.851a.122.122 0 1 0 0 .243h.85a.122.122 0 1 0 0-.243ZM18.341 12.73h-.364a.122.122 0 1 0 0 .243h.364a.122.122 0 0 0 0-.244ZM18.828 13.459h-.851a.122.122 0 1 0 0 .243h.85a.122.122 0 0 0 0-.243ZM18.341 14.188h-.364a.122.122 0 1 0 0 .244h.364a.122.122 0 0 0 0-.244ZM18.828 14.918h-.851a.122.122 0 1 0 0 .243h.85a.122.122 0 0 0 0-.243Z" fill="#D8D8D8"/>
    </g>
    <mask id="h" style="mask-type:alpha" maskUnits="userSpaceOnUse" x="18" y="9" width="5" height="2">
      <path d="M22.11 9.444h-3.647a.122.122 0 0 0-.122.122v.972c0 .067.055.122.122.122h3.646a.122.122 0 0 0 .122-.122v-.972a.122.122 0 0 0-.122-.122Z" fill="#FEFEFE"/>
    </mask>
    <g mask="url(#h)">
      <path d="M22.11 9.445h-3.647a.122.122 0 0 0-.122.122v.972c0 .067.055.122.122.122h3.646a.122.122 0 0 0 .122-.122v-.972a.122.122 0 0 0-.122-.122Z" fill="#C9C9C9"/>
      <path d="M22.23 9.445h-1.944v1.216h1.945V9.445Z" fill="#B0B0B0"/>
    </g>
    <mask id="i" style="mask-type:alpha" maskUnits="userSpaceOnUse" x="8" y="7" width="6" height="6">
      <path d="M13.677 7.007H8.613v5.824h5.064V7.007Z" fill="#FEFEFE"/>
    </mask>
    <g mask="url(#i)" fill-rule="evenodd" clip-rule="evenodd">
      <path d="M6.18 16.536c.311.88 1.53.784 2.323.61 1.008-.217 1.846-.784 2.595-1.524 1.292-1.28 2.195-3.51 1.776-5.281-.263-1.128-.679-1.752-1.826-1.974-.509-.097-.834-.245-.946-.777-.06-.286.055-.371-.256-.158-.314.219-.265.319-.051.585.614.768 1.402 1.352 1.727 2.345.274.831.103 1.869-.266 2.679-.919 2.041-2.94 3.468-5.077 3.495Z" fill="#C8C8C8"/>
      <path d="M6.132 16.388c.451-.707 1.17-1.046 1.877-1.43.736-.398 1.36-.913 1.818-1.632.415-.65.762-1.447.773-2.218.008-.847-.24-1.559-.623-2.272a1.273 1.273 0 0 0-.35-.432c-.084-.072-.428-.238-.436-.347-.016-.136.271-.346.39-.339.112.004.259.206.346.287.683.66 1.119 1.022 1.623 1.833.157.252.393.89.406 1.184.023.44-.135.994-.262 1.42-.094.322-.24.7-.389 1.002-.185.374-.402.793-.659 1.123-.546.697-1.481 1.274-2.212 1.758-.668.448-1.865.825-2.302.063Z" fill="#DBDBDB"/>
      <path d="M9.133 8.026c.153-.088.34-.16.466-.293a7.2 7.2 0 0 0 .274-.307c.063-.066.088-.144-.03-.15-.09-.008-.205.077-.29.118-.088.046-.143.109-.209.181a1.383 1.383 0 0 0-.17.231c-.05.072-.144.169-.041.22Z" fill="#454545"/>
    </g>
    <path fill-rule="evenodd" clip-rule="evenodd" d="M9.552 12.732h13.383l.471 13.091a1.02 1.02 0 0 1-1.019 1.056H10.454a1.02 1.02 0 0 1-1.02-1.028l.118-13.119Z" fill="#686868"/>
    <path fill-rule="evenodd" clip-rule="evenodd" d="M8.792 12.732h14.142l.472 13.091a1.02 1.02 0 0 1-1.019 1.056H9.34a1.02 1.02 0 0 1-1.02-1.056l.472-13.09Z" fill="#686868"/>
    <path fill-rule="evenodd" clip-rule="evenodd" d="M14.59 20.303c0-.205-.086-.386-.376-.386a.672.672 0 0 0-.331.08l.047.166a.477.477 0 0 1 .242-.07c.147 0 .17.086.17.14v.014c-.32 0-.522.113-.522.345a.27.27 0 0 0 .282.274c.11 0 .203-.045.258-.118h.005s.037.157.239.097a1.338 1.338 0 0 1-.014-.219v-.323Zm-.24.218a.18.18 0 0 1-.006.049.168.168 0 0 1-.162.116c-.066 0-.119-.039-.119-.12 0-.125.134-.16.287-.159v.114Zm-4.485-.886.095.5c.03.152.056.312.077.438h.003c.02-.134.052-.261.085-.42l.119-.518h.261l.111.532c.03.148.052.263.07.4h.004c.02-.139.046-.258.075-.41l.106-.522h.251l-.311 1.208c-.198.045-.274-.037-.302-.167l-.08-.377c-.027-.136-.049-.231-.064-.37h-.003a3.89 3.89 0 0 1-.077.37l-.13.544c-.203.042-.273-.02-.312-.186L9.6 19.635h.265Zm1.97.668c0-.205-.085-.386-.374-.386a.673.673 0 0 0-.332.08l.048.166a.477.477 0 0 1 .241-.07c.147 0 .171.086.171.14v.014c-.32 0-.523.113-.523.345a.27.27 0 0 0 .282.274c.11 0 .203-.045.258-.118h.006s.036.157.238.097a1.373 1.373 0 0 1-.014-.219v-.323Zm-.238.218a.173.173 0 0 1-.006.049.168.168 0 0 1-.162.116c-.066 0-.119-.039-.119-.12 0-.125.134-.16.287-.159v.114Zm.398.322h.24v-1.208h-.24v1.208Zm3.607-1.208v.286h.208v.23h-.208v.342c0 .11.027.164.109.164a.353.353 0 0 0 .09-.011l.004.191a.554.554 0 0 1-.174.027.262.262 0 0 1-.194-.076c-.049-.053-.071-.139-.071-.262v-.891h.236Zm-.637.302v.171h.007c.044-.13.149-.191.241-.191.023 0 .036.002.054.005v.238c-.022-.003-.042-.006-.071-.006a.188.188 0 0 0-.195.16.369.369 0 0 0-.005.066v.465h-.247v-.908h.216Zm-2.334 0v.123h.004a.278.278 0 0 1 .258-.143c.116 0 .206.064.244.162h.003a.372.372 0 0 1 .113-.113.314.314 0 0 1 .174-.05c.158 0 .298.113.298.395v.534h-.241v-.497c0-.143-.047-.226-.146-.226a.152.152 0 0 0-.144.11.26.26 0 0 0-.01.074v.54h-.24v-.518c0-.122-.046-.206-.143-.206-.078 0-.126.063-.146.116a.214.214 0 0 0-.011.075v.532h-.241v-.908h.228Z" fill="#FEFEFE"/>
    <path fill-rule="evenodd" clip-rule="evenodd" d="m17.013 19.843-.047-.545c0-.054.062-.098.14-.098.077 0 .138.044.138.098l-.047.545c-.005.033-.044.058-.092.058-.047 0-.086-.025-.092-.058Zm-.29.28-.483-.23c-.046-.027-.052-.104-.014-.173.039-.069.107-.101.152-.074l.437.314c.025.021.027.068.003.11-.023.043-.064.065-.095.053Zm.672-.163.437-.314c.046-.027.114.005.153.074.038.069.032.146-.014.172l-.484.231c-.03.012-.07-.01-.095-.052-.023-.043-.021-.09.003-.111Zm-.29.62c.048 0 .087.025.092.058l.047.544c0 .055-.061.099-.139.099-.077 0-.139-.044-.139-.099l.047-.544c.006-.033.045-.058.092-.058Zm.287-.17c.024-.042.065-.064.095-.052l.484.23c.046.027.052.104.014.173-.04.068-.107.1-.153.074l-.437-.314c-.024-.021-.026-.069-.003-.11Zm-.574 0c.024.042.022.09-.003.111l-.437.314c-.045.027-.113-.006-.152-.074-.038-.069-.032-.146.014-.173l.483-.23c.03-.012.072.01.095.052Z" fill="#C6C6C6"/>
    <path fill-rule="evenodd" clip-rule="evenodd" d="M17.585 12.817c0 2.206-1.627 3.994-3.633 3.994-2.006 0-3.632-1.788-3.632-3.994v-.085h.578l-.002.085c0 1.82 1.369 3.296 3.056 3.296 1.688 0 3.056-1.475 3.056-3.296l-.001-.085h.577v.085Z" fill="#555"/>
    <path fill-rule="evenodd" clip-rule="evenodd" d="M17.075 12.807c0 1.93-1.626 3.494-3.632 3.494-2.006 0-3.633-1.564-3.633-3.494l.001-.075h.577l-.001.075c0 1.593 1.368 2.884 3.056 2.884 1.687 0 3.055-1.291 3.055-2.884v-.075h.576v.075Z" fill="#686868"/>
    <mask id="j" style="mask-type:alpha" maskUnits="userSpaceOnUse" x="19" y="12" width="5" height="15">
      <path d="M19.11 12.733h3.824l.472 13.091a1.02 1.02 0 0 1-1.019 1.056H20.13a1.02 1.02 0 0 1-1.02-1.02V12.734Z" fill="#FEFEFE"/>
    </mask>
    <g mask="url(#j)">
      <path d="M19.111 12.732h3.823l.472 13.091a1.02 1.02 0 0 1-1.019 1.056h-2.256a1.02 1.02 0 0 1-1.02-1.02V12.733Z" fill="#5F5F5F"/>
      <path fill-rule="evenodd" clip-rule="evenodd" d="M22.677 26.879H19.89l-.736-.63 1.723-1.494 1.97 1.657a.265.265 0 0 1-.17.467ZM23.334 12.51h-3.511l-.737.63 1.723 1.495 2.525-2.124Z" fill="#555"/>
    </g>
    <path fill-rule="evenodd" clip-rule="evenodd" d="M19.043 12.732h2.013l.221 14.147h-1.624a1.02 1.02 0 0 1-1.02-1.051l.41-13.096Z" fill="#555"/>
  </g>
</svg>
