<svg width="32" height="32" fill="none" xmlns="http://www.w3.org/2000/svg">
  <mask id="a" style="mask-type:alpha" maskUnits="userSpaceOnUse" x="0" y="0" width="32" height="32">
    <circle cx="16" cy="16" r="16" fill="#fff"/>
  </mask>
  <g mask="url(#a)">
    <path fill="#E7E7E7" d="M-1-1.601h34v34H-1z"/>
    <path fill-rule="evenodd" clip-rule="evenodd" d="m20.324 8.186-3.357 4.486h-.86l3.385-4.524-.94-.042-3.416 4.566h-2.013l3.482-4.653-.437-.02-8.569.388v5.612h17.2V8.387l-4.475-.201Z" fill="#E1E1E1"/>
    <path fill-rule="evenodd" clip-rule="evenodd" d="M15.276 12.4 18.8 7.69l-2.01-.09-3.59 4.8h2.076ZM16.897 12.4 20.4 7.64l-.868-.04L16 12.4h.897Z" fill="#F1F1F1"/>
    <mask id="b" style="mask-type:alpha" maskUnits="userSpaceOnUse" x="7" y="4" width="19" height="8">
      <path fill-rule="evenodd" clip-rule="evenodd" d="M7.221 4.398h18.045v7.242H7.221V4.398Z" fill="#fff"/>
    </mask>
    <g mask="url(#b)">
      <path fill-rule="evenodd" clip-rule="evenodd" d="M7.78 11.64v-1.51l8.321-3.914 8.422 4.028v1.396h.743V9.515c0-.795-1.132-2.63-1.132-2.63-.76-1.392-1.731-2.487-3.253-2.487h-9.225c-1.522 0-2.578 1.07-3.253 2.487 0 0-1.146 1.835-1.146 2.543L7.22 11.64h.56Z" fill="#B3B3B3"/>
    </g>
    <path fill-rule="evenodd" clip-rule="evenodd" d="M24.132 8.12c-.761-1.391-1.733-2.486-3.257-2.486h-9.241c-1.524 0-2.582 1.07-3.257 2.486 0 0-1.148 1.836-1.148 2.544l-.096 7.447.002 1.314h.725v-8.861c2.187-1.578 4.38-2.567 7.86-2.567 3.482 0 6.615.99 8.802 2.567v8.861h.744V10.75c0-.795-1.134-2.63-1.134-2.63Z" fill="#2E2E2E"/>
    <path fill-rule="evenodd" clip-rule="evenodd" d="M8.528 25.358H6.325c-.5 0-.907-.342-.907-.76v-6.511c0-.419.408-.76.907-.76h2.203c.499 0 .907.341.907.76v6.51c0 .42-.408.761-.907.761Z" fill="#2E2E2E"/>
    <path fill="#2E2E2E" d="M7.68 21.119h16v1.92h-16z"/>
    <path fill-rule="evenodd" clip-rule="evenodd" d="M26.065 25.358h-2.204c-.498 0-.906-.342-.906-.76v-6.511c0-.419.408-.76.906-.76h2.204c.499 0 .907.341.907.76v6.51c0 .42-.408.761-.907.761Z" fill="#2E2E2E"/>
    <path fill-rule="evenodd" clip-rule="evenodd" d="m27.21 14.312-1.558-1.84c-.106-.146-.308-.154-.478-.154H7.225c-.17 0-.36.018-.478.155l-1.558 1.84c-.196.238-.39.463-.39.776v6.07c0 .514.389.93.868.93H26.733c.479 0 .867-.416.867-.93v-6.07c0-.313-.219-.556-.39-.777Z" fill="#B3B3B3"/>
    <mask id="c" style="mask-type:alpha" maskUnits="userSpaceOnUse" x="4" y="12" width="24" height="10">
      <path fill-rule="evenodd" clip-rule="evenodd" d="M16.74 12.398H7.226c-.17 0-.36.018-.478.152l-1.558 1.807c-.196.235-.39.456-.39.764v5.963c0 .505.389.914.868.914H26.733c.479 0 .867-.41.867-.914V15.12c0-.308-.219-.547-.39-.764l-1.558-1.807c-.106-.144-.308-.152-.478-.152h-8.433Z" fill="#fff"/>
    </mask>
    <g mask="url(#c)">
      <path fill-rule="evenodd" clip-rule="evenodd" d="M3.2 22.398h27.52v-1.92H3.2v1.92Z" fill="#696969"/>
      <mask id="d" style="mask-type:alpha" maskUnits="userSpaceOnUse" x="4" y="12" width="24" height="10">
        <path fill-rule="evenodd" clip-rule="evenodd" d="M16.74 12.398H7.226c-.17 0-.36.018-.478.152l-1.558 1.807c-.196.235-.39.456-.39.764v5.963c0 .505.389.914.868.914H26.733c.479 0 .867-.41.867-.914V15.12c0-.308-.219-.547-.39-.764l-1.558-1.807c-.106-.144-.308-.152-.478-.152h-8.433Z" fill="#fff"/>
      </mask>
      <g mask="url(#d)">
        <path fill-rule="evenodd" clip-rule="evenodd" d="M7.627 15.498a.432.432 0 0 0-.435-.427h-4.73a.432.432 0 0 0-.435.427v1.832h5.6v-1.832Z" fill="#898989"/>
      </g>
      <path fill-rule="evenodd" clip-rule="evenodd" d="M24.785 15.498c0-.235.196-.427.435-.427h5.67c.24 0 .436.192.436.427v1.832h-6.541v-1.832Z" fill="#898989"/>
      <path fill-rule="evenodd" clip-rule="evenodd" d="M2.027 17.676h5.6v-.469h-5.6v.469ZM24.785 17.676h6.54v-.469h-6.54v.469Z" fill="#FCFCFC"/>
      <path fill-rule="evenodd" clip-rule="evenodd" d="M23.727 10.455H8.67a3.017 3.017 0 0 0-.687 2.845l.95 3.434c.37 1.336 1.606 2.264 3.019 2.264H21.385c1.413 0 1.71-.928 2.079-2.264l.95-3.434a3.017 3.017 0 0 0-.687-2.845Z" fill="#303030"/>
    </g>
    <mask id="e" style="mask-type:alpha" maskUnits="userSpaceOnUse" x="7" y="11" width="18" height="8">
      <path fill-rule="evenodd" clip-rule="evenodd" d="M16.734 11.999H8.001c-.01.305.025.618.107.929l.935 3.538c.364 1.377 1.583 2.333 2.974 2.333h9.292c1.391 0 1.684-.956 2.048-2.333l.935-3.538c.082-.311.116-.624.106-.929h-7.664Z" fill="#fff"/>
    </mask>
    <g mask="url(#e)" fill-rule="evenodd" clip-rule="evenodd">
      <path d="M18.194 13.515h1.485v-.565h-1.485v.565Zm1.84 0v-.747l-.177-.182h-1.84l-.177.182v.747h-1.29v5.442h4.774v-5.442h-1.29ZM12.837 13.515h1.486v-.565h-1.486v.565Zm1.84 0v-.747l-.177-.182h-1.84l-.178.182v.747h-1.289v5.442h4.774v-5.442h-1.29Z" fill="#696969"/>
      <path d="M13.908 15.895c0-.092-.038-.173-.168-.173a.3.3 0 0 0-.148.037l.021.074a.214.214 0 0 1 .108-.032c.066 0 .077.039.077.063v.006c-.144 0-.234.05-.234.154a.12.12 0 0 0 .126.123c.05 0 .09-.02.115-.052h.003s.016.07.107.043a.592.592 0 0 1-.007-.098v-.145Zm-.107.097c0 .008 0 .016-.002.022a.075.075 0 0 1-.073.052c-.03 0-.053-.017-.053-.053 0-.056.06-.072.128-.071v.05Zm-2.008-.395a82.89 82.89 0 0 1 .077.42h.002c.009-.06.023-.117.038-.188l.053-.232h.117l.05.238c.013.066.023.118.031.18h.002c.009-.063.02-.116.033-.184l.048-.234h.112l-.14.54c-.088.02-.122-.016-.134-.074a36.926 36.926 0 0 0-.036-.169c-.012-.06-.022-.103-.029-.166h-.001c-.01.062-.02.105-.035.166l-.058.244c-.09.018-.122-.01-.14-.084l-.108-.457h.118Zm.883.298c0-.092-.038-.173-.168-.173a.3.3 0 0 0-.148.037l.021.074a.214.214 0 0 1 .108-.032c.066 0 .077.039.077.063v.006c-.144 0-.234.05-.234.154a.12.12 0 0 0 .126.123c.05 0 .09-.02.115-.052h.003s.016.07.106.043a.614.614 0 0 1-.006-.098v-.145Zm-.107.097c0 .008 0 .016-.002.022a.075.075 0 0 1-.073.052c-.03 0-.053-.017-.053-.053 0-.056.06-.072.128-.071v.05Zm.178.146h.107v-.541h-.107v.54Zm1.615-.541v.128h.093v.103h-.093v.153c0 .05.012.073.049.073.017 0 .03-.002.04-.005l.002.086a.249.249 0 0 1-.078.012.117.117 0 0 1-.087-.034c-.022-.024-.032-.062-.032-.117v-.4h.106Zm-.285.135v.076h.003c.02-.058.066-.086.108-.086.01 0 .016.001.024.003v.106c-.01-.001-.02-.003-.032-.003a.084.084 0 0 0-.087.072.16.16 0 0 0-.003.03v.208h-.11v-.407h.097Zm-1.045 0v.055h.001a.124.124 0 0 1 .116-.065c.052 0 .092.03.109.073h.002a.167.167 0 0 1 .05-.05.141.141 0 0 1 .078-.023c.07 0 .133.05.133.177v.239h-.108v-.223c0-.064-.02-.1-.065-.1a.068.068 0 0 0-.065.049.114.114 0 0 0-.004.033v.24h-.108v-.23c0-.055-.02-.093-.063-.093-.035 0-.057.028-.066.052a.095.095 0 0 0-.005.034v.238h-.107v-.407h.102Z" fill="#FCFCFC"/>
      <path d="m14.993 15.69-.021-.245c0-.024.027-.044.062-.044s.062.02.062.044l-.02.244c-.003.015-.02.026-.042.026-.021 0-.039-.011-.041-.026Zm-.13.125-.216-.104c-.02-.011-.024-.046-.006-.077.017-.03.047-.045.068-.033l.195.14c.011.01.012.031.002.05-.011.02-.03.029-.043.024Zm.301-.073.196-.14c.02-.013.05.002.068.032.017.031.014.066-.006.077l-.217.104c-.013.005-.032-.005-.042-.024-.011-.019-.01-.04.001-.05Zm-.13.277c.021 0 .039.012.041.027l.021.243c0 .024-.027.044-.062.044s-.062-.02-.062-.044l.021-.244c.002-.014.02-.026.041-.026Zm.129-.075c.01-.02.029-.029.042-.024l.217.103c.02.012.023.047.006.078-.018.03-.048.045-.069.033l-.195-.14c-.011-.01-.012-.031-.001-.05Zm-.258 0c.011.019.01.04 0 .05l-.196.14c-.02.012-.051-.003-.068-.033-.018-.031-.015-.066.006-.078l.216-.103c.014-.005.032.005.043.024Z" fill="#C6C6C6"/>
      <path d="M19.214 15.895c0-.092-.038-.173-.168-.173a.3.3 0 0 0-.148.037l.02.074a.213.213 0 0 1 .109-.032c.066 0 .076.039.076.063v.006c-.143 0-.234.05-.234.154a.12.12 0 0 0 .127.123c.05 0 .09-.02.115-.052h.003s.016.07.106.043a.603.603 0 0 1-.006-.098v-.145Zm-.107.097c0 .008 0 .016-.003.022a.075.075 0 0 1-.072.052c-.03 0-.053-.017-.053-.053 0-.056.06-.072.128-.071v.05Zm-2.008-.395a82.89 82.89 0 0 1 .078.42h.001c.01-.06.023-.117.038-.188l.053-.232h.117l.05.238c.013.066.023.118.031.18h.002c.009-.063.02-.116.033-.184l.048-.234h.112l-.139.54c-.089.02-.123-.016-.135-.074l-.036-.169c-.012-.06-.022-.103-.028-.166h-.002c-.01.062-.02.105-.034.166l-.059.244c-.09.018-.122-.01-.14-.084-.014-.064-.108-.457-.108-.457h.118Zm.883.298c0-.092-.038-.173-.168-.173-.067 0-.12.02-.148.037l.02.074a.214.214 0 0 1 .109-.032c.066 0 .076.039.076.063v.006c-.143 0-.233.05-.233.154a.12.12 0 0 0 .126.123c.05 0 .09-.02.115-.052h.003s.016.07.106.043a.614.614 0 0 1-.006-.098v-.145Zm-.107.097c0 .008 0 .016-.003.022a.075.075 0 0 1-.072.052c-.03 0-.053-.017-.053-.053 0-.056.06-.072.128-.071v.05Zm.178.146h.107v-.541h-.107v.54Zm1.614-.541v.128h.094v.103h-.093v.153c0 .05.012.073.048.073.017 0 .03-.002.04-.005l.002.086a.249.249 0 0 1-.077.012.117.117 0 0 1-.088-.034c-.021-.024-.031-.062-.031-.117v-.4h.105Zm-.285.135v.076h.003c.02-.058.067-.086.108-.086.01 0 .016.001.025.003v.106c-.01-.001-.02-.003-.032-.003a.084.084 0 0 0-.088.072.17.17 0 0 0-.002.03v.208h-.11v-.407h.096Zm-1.045 0v.055h.002a.124.124 0 0 1 .115-.065c.053 0 .093.03.11.073h.001a.167.167 0 0 1 .05-.05.141.141 0 0 1 .079-.023c.07 0 .133.05.133.177v.239h-.108v-.223c0-.064-.021-.1-.065-.1a.068.068 0 0 0-.065.049.114.114 0 0 0-.004.033v.24h-.108v-.23c0-.055-.02-.093-.064-.093-.034 0-.056.028-.065.052a.095.095 0 0 0-.005.034v.238h-.108v-.407h.102Z" fill="#FCFCFC"/>
      <path d="m20.3 15.69-.022-.245c0-.024.028-.044.062-.044.035 0 .062.02.062.044l-.02.244c-.003.015-.02.026-.042.026-.021 0-.038-.011-.04-.026Zm-.13.125-.217-.104c-.02-.011-.024-.046-.006-.077.017-.03.047-.045.068-.033l.195.14c.011.01.012.031.002.05-.01.02-.03.029-.043.024Zm.3-.073.196-.14c.02-.013.05.002.068.032.017.031.014.066-.006.077l-.217.104c-.013.005-.032-.005-.042-.024-.01-.019-.01-.04.001-.05Zm-.13.277c.021 0 .039.012.041.027l.021.243c0 .024-.027.044-.062.044-.034 0-.062-.02-.062-.044l.021-.244c.003-.014.02-.026.041-.026Zm.129-.075c.01-.02.029-.029.042-.024l.217.103c.02.012.023.047.006.078-.018.03-.048.045-.068.033l-.196-.14c-.011-.01-.012-.031-.001-.05Zm-.257 0c.01.019.01.04-.002.05l-.195.14c-.02.012-.051-.003-.068-.033-.018-.031-.014-.066.006-.078l.216-.103c.014-.005.032.005.043.024Z" fill="#C6C6C6"/>
    </g>
  </g>
</svg>
